<?xml version="1.0" encoding="UTF-8" standalone="no"?>
<!DOCTYPE svg PUBLIC "-//W3C//DTD SVG 1.1//EN"
 "http://www.w3.org/Graphics/SVG/1.1/DTD/svg11.dtd">
<!-- Generated by graphviz version 2.38.0 (20140413.2041)
 -->
<!-- Title: controllers_diagram Pages: 1 -->
<svg width="592pt" height="517pt"
 viewBox="0.00 0.00 592.00 517.00" xmlns="http://www.w3.org/2000/svg" xmlns:xlink="http://www.w3.org/1999/xlink">
<g id="graph0" class="graph" transform="scale(1 1) rotate(0) translate(228 305.5)">
<title>controllers_diagram</title>
<polygon fill="none" stroke="none" points="-228,211.5 -228,-305.5 364,-305.5 364,211.5 -228,211.5"/>
<!-- _diagram_info -->
<g id="node1" class="node"><title>_diagram_info</title>
<text text-anchor="start" x="72" y="0.4" font-family="Times,serif" font-size="13.00">Controllers diagram</text>
<text text-anchor="start" x="72" y="14.4" font-family="Times,serif" font-size="13.00">Date: Dec 20 2019 &#45; 10:31</text>
<text text-anchor="start" x="72" y="28.4" font-family="Times,serif" font-size="13.00">Migration version: 20191206113137</text>
<text text-anchor="start" x="72" y="42.4" font-family="Times,serif" font-size="13.00">Generated by RailRoady 1.5.3</text>
<text text-anchor="start" x="72" y="56.4" font-family="Times,serif" font-size="13.00">http://railroady.prestonlee.com</text>
</g>
<!-- MicropostsController -->
<g id="node2" class="node"><title>MicropostsController</title>
<path fill="none" stroke="black" d="M76,-49C76,-49 186,-49 186,-49 192,-49 198,-55 198,-61 198,-61 198,-175 198,-175 198,-181 192,-187 186,-187 186,-187 76,-187 76,-187 70,-187 64,-181 64,-175 64,-175 64,-61 64,-61 64,-55 70,-49 76,-49"/>
<text text-anchor="middle" x="131" y="-171.8" font-family="Times,serif" font-size="14.00">MicropostsController</text>
<polyline fill="none" stroke="black" points="64,-164 198,-164 "/>
<text text-anchor="start" x="72" y="-148.8" font-family="Times,serif" font-size="14.00">create</text>
<text text-anchor="start" x="72" y="-133.8" font-family="Times,serif" font-size="14.00">destroy</text>
<polyline fill="none" stroke="black" points="64,-126 198,-126 "/>
<polyline fill="none" stroke="black" points="64,-102 198,-102 "/>
<text text-anchor="start" x="72" y="-86.8" font-family="Times,serif" font-size="14.00">_layout</text>
<text text-anchor="start" x="72" y="-71.8" font-family="Times,serif" font-size="14.00">correct_user</text>
<text text-anchor="start" x="72" y="-56.8" font-family="Times,serif" font-size="14.00">micropost_params</text>
</g>
<!-- AccountActivationsController -->
<g id="node3" class="node"><title>AccountActivationsController</title>
<path fill="none" stroke="black" d="M-132,-144.5C-132,-144.5 24,-144.5 24,-144.5 30,-144.5 36,-150.5 36,-156.5 36,-156.5 36,-225.5 36,-225.5 36,-231.5 30,-237.5 24,-237.5 24,-237.5 -132,-237.5 -132,-237.5 -138,-237.5 -144,-231.5 -144,-225.5 -144,-225.5 -144,-156.5 -144,-156.5 -144,-150.5 -138,-144.5 -132,-144.5"/>
<text text-anchor="middle" x="-54" y="-222.3" font-family="Times,serif" font-size="14.00">AccountActivationsController</text>
<polyline fill="none" stroke="black" points="-144,-214.5 36,-214.5 "/>
<text text-anchor="start" x="-136" y="-199.3" font-family="Times,serif" font-size="14.00">edit</text>
<polyline fill="none" stroke="black" points="-144,-191.5 36,-191.5 "/>
<polyline fill="none" stroke="black" points="-144,-167.5 36,-167.5 "/>
<text text-anchor="start" x="-136" y="-152.3" font-family="Times,serif" font-size="14.00">_layout</text>
</g>
<!-- RelationshipsController -->
<g id="node4" class="node"><title>RelationshipsController</title>
<path fill="none" stroke="black" d="M76,207C76,207 198,207 198,207 204,207 210,201 210,195 210,195 210,111 210,111 210,105 204,99 198,99 198,99 76,99 76,99 70,99 64,105 64,111 64,111 64,195 64,195 64,201 70,207 76,207"/>
<text text-anchor="middle" x="137" y="114.2" font-family="Times,serif" font-size="14.00">RelationshipsController</text>
<polyline fill="none" stroke="black" points="64,122 210,122 "/>
<text text-anchor="start" x="72" y="137.2" font-family="Times,serif" font-size="14.00">create</text>
<text text-anchor="start" x="72" y="152.2" font-family="Times,serif" font-size="14.00">destroy</text>
<polyline fill="none" stroke="black" points="64,160 210,160 "/>
<polyline fill="none" stroke="black" points="64,184 210,184 "/>
<text text-anchor="start" x="72" y="199.2" font-family="Times,serif" font-size="14.00">_layout</text>
</g>
<!-- StaticPagesController -->
<g id="node5" class="node"><title>StaticPagesController</title>
<path fill="none" stroke="black" d="M-212,31C-212,31 -102,31 -102,31 -96,31 -90,25 -90,19 -90,19 -90,-95 -90,-95 -90,-101 -96,-107 -102,-107 -102,-107 -212,-107 -212,-107 -218,-107 -224,-101 -224,-95 -224,-95 -224,19 -224,19 -224,25 -218,31 -212,31"/>
<text text-anchor="middle" x="-157" y="-91.8" font-family="Times,serif" font-size="14.00">StaticPagesController</text>
<polyline fill="none" stroke="black" points="-224,-84 -90,-84 "/>
<text text-anchor="start" x="-216" y="-68.8" font-family="Times,serif" font-size="14.00">about</text>
<text text-anchor="start" x="-216" y="-53.8" font-family="Times,serif" font-size="14.00">contact</text>
<text text-anchor="start" x="-216" y="-38.8" font-family="Times,serif" font-size="14.00">help</text>
<text text-anchor="start" x="-216" y="-23.8" font-family="Times,serif" font-size="14.00">home</text>
<polyline fill="none" stroke="black" points="-224,-16 -90,-16 "/>
<polyline fill="none" stroke="black" points="-224,8 -90,8 "/>
<text text-anchor="start" x="-216" y="23.2" font-family="Times,serif" font-size="14.00">_layout</text>
</g>
<!-- ApplicationController -->
<g id="node6" class="node"><title>ApplicationController</title>
<path fill="none" stroke="black" d="M236,-48.5C236,-48.5 348,-48.5 348,-48.5 354,-48.5 360,-54.5 360,-60.5 360,-60.5 360,-145.5 360,-145.5 360,-151.5 354,-157.5 348,-157.5 348,-157.5 236,-157.5 236,-157.5 230,-157.5 224,-151.5 224,-145.5 224,-145.5 224,-60.5 224,-60.5 224,-54.5 230,-48.5 236,-48.5"/>
<text text-anchor="middle" x="292" y="-142.3" font-family="Times,serif" font-size="14.00">ApplicationController</text>
<polyline fill="none" stroke="black" points="224,-134.5 360,-134.5 "/>
<polyline fill="none" stroke="black" points="224,-110.5 360,-110.5 "/>
<polyline fill="none" stroke="black" points="224,-86.5 360,-86.5 "/>
<text text-anchor="start" x="232" y="-71.3" font-family="Times,serif" font-size="14.00">_layout</text>
<text text-anchor="start" x="232" y="-56.3" font-family="Times,serif" font-size="14.00">logged_in_user</text>
</g>
<!-- LikesController -->
<g id="node7" class="node"><title>LikesController</title>
<path fill="none" stroke="black" d="M236,-193C236,-193 314,-193 314,-193 320,-193 326,-199 326,-205 326,-205 326,-289 326,-289 326,-295 320,-301 314,-301 314,-301 236,-301 236,-301 230,-301 224,-295 224,-289 224,-289 224,-205 224,-205 224,-199 230,-193 236,-193"/>
<text text-anchor="middle" x="275" y="-285.8" font-family="Times,serif" font-size="14.00">LikesController</text>
<polyline fill="none" stroke="black" points="224,-278 326,-278 "/>
<text text-anchor="start" x="232" y="-262.8" font-family="Times,serif" font-size="14.00">create</text>
<text text-anchor="start" x="232" y="-247.8" font-family="Times,serif" font-size="14.00">destroy</text>
<polyline fill="none" stroke="black" points="224,-240 326,-240 "/>
<polyline fill="none" stroke="black" points="224,-216 326,-216 "/>
<text text-anchor="start" x="232" y="-200.8" font-family="Times,serif" font-size="14.00">_layout</text>
</g>
<!-- SessionsController -->
<g id="node8" class="node"><title>SessionsController</title>
<path fill="none" stroke="black" d="M-195.5,191.5C-195.5,191.5 -100.5,191.5 -100.5,191.5 -94.5,191.5 -88.5,185.5 -88.5,179.5 -88.5,179.5 -88.5,80.5 -88.5,80.5 -88.5,74.5 -94.5,68.5 -100.5,68.5 -100.5,68.5 -195.5,68.5 -195.5,68.5 -201.5,68.5 -207.5,74.5 -207.5,80.5 -207.5,80.5 -207.5,179.5 -207.5,179.5 -207.5,185.5 -201.5,191.5 -195.5,191.5"/>
<text text-anchor="middle" x="-148" y="83.7" font-family="Times,serif" font-size="14.00">SessionsController</text>
<polyline fill="none" stroke="black" points="-207.5,91.5 -88.5,91.5 "/>
<text text-anchor="start" x="-199.5" y="106.7" font-family="Times,serif" font-size="14.00">create</text>
<text text-anchor="start" x="-199.5" y="121.7" font-family="Times,serif" font-size="14.00">destroy</text>
<text text-anchor="start" x="-199.5" y="136.7" font-family="Times,serif" font-size="14.00">new</text>
<polyline fill="none" stroke="black" points="-207.5,144.5 -88.5,144.5 "/>
<polyline fill="none" stroke="black" points="-207.5,168.5 -88.5,168.5 "/>
<text text-anchor="start" x="-199.5" y="183.7" font-family="Times,serif" font-size="14.00">_layout</text>
</g>
<!-- UsersController -->
<g id="node9" class="node"><title>UsersController</title>
<path fill="none" stroke="black" d="M-51.5,143C-51.5,143 27.5,143 27.5,143 33.5,143 39.5,137 39.5,131 39.5,131 39.5,-103 39.5,-103 39.5,-109 33.5,-115 27.5,-115 27.5,-115 -51.5,-115 -51.5,-115 -57.5,-115 -63.5,-109 -63.5,-103 -63.5,-103 -63.5,131 -63.5,131 -63.5,137 -57.5,143 -51.5,143"/>
<text text-anchor="middle" x="-12" y="-99.8" font-family="Times,serif" font-size="14.00">UsersController</text>
<polyline fill="none" stroke="black" points="-63.5,-92 39.5,-92 "/>
<text text-anchor="start" x="-55.5" y="-76.8" font-family="Times,serif" font-size="14.00">create</text>
<text text-anchor="start" x="-55.5" y="-61.8" font-family="Times,serif" font-size="14.00">destroy</text>
<text text-anchor="start" x="-55.5" y="-46.8" font-family="Times,serif" font-size="14.00">edit</text>
<text text-anchor="start" x="-55.5" y="-31.8" font-family="Times,serif" font-size="14.00">followers</text>
<text text-anchor="start" x="-55.5" y="-16.8" font-family="Times,serif" font-size="14.00">following</text>
<text text-anchor="start" x="-55.5" y="-1.8" font-family="Times,serif" font-size="14.00">index</text>
<text text-anchor="start" x="-55.5" y="13.2" font-family="Times,serif" font-size="14.00">new</text>
<text text-anchor="start" x="-55.5" y="28.2" font-family="Times,serif" font-size="14.00">show</text>
<text text-anchor="start" x="-55.5" y="43.2" font-family="Times,serif" font-size="14.00">update</text>
<polyline fill="none" stroke="black" points="-63.5,51 39.5,51 "/>
<polyline fill="none" stroke="black" points="-63.5,75 39.5,75 "/>
<text text-anchor="start" x="-55.5" y="90.2" font-family="Times,serif" font-size="14.00">_layout</text>
<text text-anchor="start" x="-55.5" y="105.2" font-family="Times,serif" font-size="14.00">admin_user</text>
<text text-anchor="start" x="-55.5" y="120.2" font-family="Times,serif" font-size="14.00">correct_user</text>
<text text-anchor="start" x="-55.5" y="135.2" font-family="Times,serif" font-size="14.00">user_params</text>
</g>
</g>
</svg>
