<?xml version="1.0" encoding="UTF-8" standalone="no"?>
<!DOCTYPE svg PUBLIC "-//W3C//DTD SVG 1.1//EN"
 "http://www.w3.org/Graphics/SVG/1.1/DTD/svg11.dtd">
<!-- Generated by graphviz version 2.38.0 (20140413.2041)
 -->
<!-- Title: models_diagram Pages: 1 -->
<svg width="672pt" height="246pt"
 viewBox="0.00 0.00 672.00 246.00" xmlns="http://www.w3.org/2000/svg" xmlns:xlink="http://www.w3.org/1999/xlink">
<g id="graph0" class="graph" transform="scale(1 1) rotate(0) translate(4 242)">
<title>models_diagram</title>
<polygon fill="none" stroke="none" points="-4,4 -4,-242 668,-242 668,4 -4,4"/>
<!-- _diagram_info -->
<g id="node1" class="node"><title>_diagram_info</title>
<text text-anchor="start" x="8" y="-223.6" font-family="Times,serif" font-size="13.00">Models diagram</text>
<text text-anchor="start" x="8" y="-209.6" font-family="Times,serif" font-size="13.00">Date: Dec 20 2019 &#45; 10:31</text>
<text text-anchor="start" x="8" y="-195.6" font-family="Times,serif" font-size="13.00">Migration version: 20191206113137</text>
<text text-anchor="start" x="8" y="-181.6" font-family="Times,serif" font-size="13.00">Generated by RailRoady 1.5.3</text>
<text text-anchor="start" x="8" y="-167.6" font-family="Times,serif" font-size="13.00">http://railroady.prestonlee.com</text>
</g>
<!-- ApplicationRecord -->
<g id="node2" class="node"><title>ApplicationRecord</title>
<ellipse fill="none" stroke="black" cx="309" cy="-199" rx="77.1866" ry="18"/>
<text text-anchor="middle" x="309" y="-195.3" font-family="Times,serif" font-size="14.00">ApplicationRecord</text>
</g>
<!-- Like -->
<g id="node3" class="node"><title>Like</title>
<ellipse fill="none" stroke="black" cx="281" cy="-18" rx="27" ry="18"/>
<text text-anchor="middle" x="281" y="-14.3" font-family="Times,serif" font-size="14.00">Like</text>
</g>
<!-- Relationship -->
<g id="node4" class="node"><title>Relationship</title>
<ellipse fill="none" stroke="black" cx="325" cy="-91" rx="55.4913" ry="18"/>
<text text-anchor="middle" x="325" y="-87.3" font-family="Times,serif" font-size="14.00">Relationship</text>
</g>
<!-- User -->
<g id="node5" class="node"><title>User</title>
<ellipse fill="none" stroke="black" cx="432" cy="-199" rx="27.0966" ry="18"/>
<text text-anchor="middle" x="432" y="-195.3" font-family="Times,serif" font-size="14.00">User</text>
</g>
<!-- User&#45;&gt;Like -->
<g id="edge6" class="edge"><title>User&#45;&gt;Like</title>
<path fill="none" stroke="#8c3c41" d="M415.746,-176.256C409.915,-169.98 402.825,-163.806 395,-160 361.236,-143.576 252.096,-169.928 227,-142 200.186,-112.16 233.79,-66.8852 258.722,-40.3919"/>
<ellipse fill="none" stroke="#8c3c41" cx="418.519" cy="-179.457" rx="4.00002" ry="4.00002"/>
<polygon fill="#8c3c41" stroke="#8c3c41" points="258.814,-40.2973 269.012,-36.2654 262.3,-36.7127 265.786,-33.1281 265.786,-33.1281 265.786,-33.1281 262.3,-36.7127 262.56,-29.9909 258.814,-40.2973 258.814,-40.2973"/>
</g>
<!-- User&#45;&gt;Relationship -->
<g id="edge2" class="edge"><title>User&#45;&gt;Relationship</title>
<path fill="none" stroke="#4aabb7" d="M415.455,-175.982C409.677,-169.811 402.691,-163.766 395,-160 362.866,-144.264 258.844,-168.677 235,-142 219.617,-124.79 242.657,-112.219 269.269,-103.987"/>
<ellipse fill="none" stroke="#4aabb7" cx="418.181" cy="-179.102" rx="4.00002" ry="4.00002"/>
<polygon fill="#4aabb7" stroke="#4aabb7" points="269.557,-103.905 280.41,-105.476 274.364,-102.527 279.171,-101.15 279.171,-101.15 279.171,-101.15 274.364,-102.527 277.931,-96.824 269.557,-103.905 269.557,-103.905"/>
<text text-anchor="middle" x="289.5" y="-130.8" font-family="Times,serif" font-size="14.00">active_relationships</text>
</g>
<!-- User&#45;&gt;Relationship -->
<g id="edge3" class="edge"><title>User&#45;&gt;Relationship</title>
<path fill="none" stroke="#d48400" d="M413.433,-176.79C407.821,-170.991 401.432,-164.947 395,-160 382.065,-150.053 375.304,-152.719 363,-142 354.738,-134.802 347.106,-125.55 340.884,-116.966"/>
<ellipse fill="none" stroke="#d48400" cx="416.448" cy="-180.006" rx="4.00002" ry="4.00002"/>
<polygon fill="#d48400" stroke="#d48400" points="340.855,-116.924 338.858,-106.142 338.007,-112.815 335.159,-108.705 335.159,-108.705 335.159,-108.705 338.007,-112.815 331.461,-111.268 340.855,-116.924 340.855,-116.924"/>
<text text-anchor="middle" x="421" y="-130.8" font-family="Times,serif" font-size="14.00">passive_relationships</text>
</g>
<!-- User&#45;&gt;User -->
<g id="edge4" class="edge"><title>User&#45;&gt;User</title>
<path fill="none" stroke="#0a304c" d="M468.359,-204.426C473.696,-203.571 477.298,-201.763 477.298,-199 477.298,-196.237 473.696,-194.429 468.359,-193.574"/>
<polygon fill="#0a304c" stroke="#0a304c" points="468.054,-204.442 457.833,-200.47 463.061,-204.703 458.067,-204.963 458.067,-204.963 458.067,-204.963 463.061,-204.703 458.302,-209.457 468.054,-204.442 468.054,-204.442"/>
<polygon fill="#0a304c" stroke="#0a304c" points="468.054,-193.558 458.302,-188.543 463.061,-193.297 458.067,-193.037 458.067,-193.037 458.067,-193.037 463.061,-193.297 457.833,-197.53 468.054,-193.558 468.054,-193.558"/>
<text text-anchor="middle" x="503.798" y="-195.3" font-family="Times,serif" font-size="14.00">following</text>
</g>
<!-- User&#45;&gt;User -->
<g id="edge5" class="edge"><title>User&#45;&gt;User</title>
<path fill="none" stroke="#7c3bc5" d="M465.852,-209.54C495.187,-213.304 530.298,-209.79 530.298,-199 530.298,-188.21 495.187,-184.696 465.852,-188.46"/>
<polygon fill="#7c3bc5" stroke="#7c3bc5" points="465.654,-209.508 456.504,-203.464 460.718,-208.707 455.783,-207.906 455.783,-207.906 455.783,-207.906 460.718,-208.707 455.062,-212.347 465.654,-209.508 465.654,-209.508"/>
<polygon fill="#7c3bc5" stroke="#7c3bc5" points="465.654,-188.492 455.062,-185.653 460.718,-189.293 455.783,-190.094 455.783,-190.094 455.783,-190.094 460.718,-189.293 456.504,-194.536 465.654,-188.492 465.654,-188.492"/>
<text text-anchor="middle" x="556.298" y="-195.3" font-family="Times,serif" font-size="14.00">followers</text>
</g>
<!-- Micropost -->
<g id="node6" class="node"><title>Micropost</title>
<ellipse fill="none" stroke="black" cx="513" cy="-91" rx="47.3916" ry="18"/>
<text text-anchor="middle" x="513" y="-87.3" font-family="Times,serif" font-size="14.00">Micropost</text>
</g>
<!-- User&#45;&gt;Micropost -->
<g id="edge1" class="edge"><title>User&#45;&gt;Micropost</title>
<path fill="none" stroke="#278a9a" d="M452.51,-177.473C462.259,-167.232 473.771,-154.407 483,-142 488.707,-134.328 494.286,-125.511 499.056,-117.438"/>
<ellipse fill="none" stroke="#278a9a" cx="449.481" cy="-180.611" rx="4.00002" ry="4.00002"/>
<polygon fill="#278a9a" stroke="#278a9a" points="499.073,-117.408 507.96,-110.984 501.566,-113.074 504.06,-108.74 504.06,-108.74 504.06,-108.74 501.566,-113.074 500.159,-106.496 499.073,-117.408 499.073,-117.408"/>
</g>
<!-- User&#45;&gt;Micropost -->
<g id="edge7" class="edge"><title>User&#45;&gt;Micropost</title>
<path fill="none" stroke="#0ea5e1" d="M460.769,-181.058C474.895,-171.33 490.987,-157.89 501,-142 505.302,-135.173 508.062,-126.934 509.833,-119.13"/>
<polygon fill="#0ea5e1" stroke="#0ea5e1" points="460.656,-181.132 449.828,-182.863 456.478,-183.878 452.299,-186.624 452.299,-186.624 452.299,-186.624 456.478,-183.878 454.77,-190.385 460.656,-181.132 460.656,-181.132"/>
<polygon fill="#0ea5e1" stroke="#0ea5e1" points="509.835,-119.115 516.063,-110.089 510.736,-114.197 511.637,-109.279 511.637,-109.279 511.637,-109.279 510.736,-114.197 507.211,-108.468 509.835,-119.115 509.835,-119.115"/>
<text text-anchor="middle" x="554" y="-130.8" font-family="Times,serif" font-size="14.00">liked_microposts</text>
</g>
<!-- Micropost&#45;&gt;Like -->
<g id="edge8" class="edge"><title>Micropost&#45;&gt;Like</title>
<path fill="none" stroke="#860100" d="M469.412,-76.6605C424.584,-62.9415 355.712,-41.8644 314.829,-29.3528"/>
<ellipse fill="none" stroke="#860100" cx="473.434" cy="-77.8913" rx="4.00001" ry="4.00001"/>
<polygon fill="#860100" stroke="#860100" points="314.632,-29.2926 306.386,-22.0631 309.851,-27.8293 305.07,-26.3661 305.07,-26.3661 305.07,-26.3661 309.851,-27.8293 303.753,-30.6691 314.632,-29.2926 314.632,-29.2926"/>
</g>
<!-- Micropost&#45;&gt;User -->
<g id="edge10" class="edge"><title>Micropost&#45;&gt;User</title>
<path fill="none" stroke="#965d1a" d="M565.419,-101.791C593.381,-109.491 619.348,-122.274 605,-142 574.165,-184.391 510.549,-195.35 469.648,-197.818"/>
<polygon fill="#965d1a" stroke="#965d1a" points="565.2,-101.735 556.614,-94.9143 560.354,-100.506 555.507,-99.2762 555.507,-99.2762 555.507,-99.2762 560.354,-100.506 554.401,-103.638 565.2,-101.735 565.2,-101.735"/>
<polygon fill="#965d1a" stroke="#965d1a" points="469.51,-197.825 459.313,-193.79 464.515,-198.055 459.52,-198.285 459.52,-198.285 459.52,-198.285 464.515,-198.055 459.727,-202.78 469.51,-197.825 469.51,-197.825"/>
<text text-anchor="middle" x="636.5" y="-130.8" font-family="Times,serif" font-size="14.00">iine_users</text>
</g>
<!-- Micropost&#45;&gt;Micropost -->
<g id="edge9" class="edge"><title>Micropost&#45;&gt;Micropost</title>
<path fill="none" stroke="#958c08" d="M567.384,-96.8448C574.064,-95.8003 578.446,-93.8521 578.446,-91 578.446,-88.1479 574.064,-86.1997 567.384,-85.1552"/>
<polygon fill="#958c08" stroke="#958c08" points="567.011,-96.8759 556.671,-93.2244 562.028,-97.2923 557.045,-97.7088 557.045,-97.7088 557.045,-97.7088 562.028,-97.2923 557.42,-102.193 567.011,-96.8759 567.011,-96.8759"/>
<polygon fill="#958c08" stroke="#958c08" points="567.011,-85.1241 557.42,-79.8068 562.028,-84.7077 557.045,-84.2912 557.045,-84.2912 557.045,-84.2912 562.028,-84.7077 556.671,-88.7756 567.011,-85.1241 567.011,-85.1241"/>
<text text-anchor="middle" x="609.446" y="-87.3" font-family="Times,serif" font-size="14.00">liked_users</text>
</g>
</g>
</svg>
