<?xml version="1.0" encoding="UTF-8" standalone="no"?>
<!DOCTYPE svg PUBLIC "-//W3C//DTD SVG 1.1//EN"
 "http://www.w3.org/Graphics/SVG/1.1/DTD/svg11.dtd">
<!-- Generated by graphviz version 2.38.0 (20140413.2041)
 -->
<!-- Title: models_diagram Pages: 1 -->
<svg width="719pt" height="567pt"
 viewBox="0.00 0.00 719.00 567.00" xmlns="http://www.w3.org/2000/svg" xmlns:xlink="http://www.w3.org/1999/xlink">
<g id="graph0" class="graph" transform="scale(1 1) rotate(0) translate(4 563)">
<title>models_diagram</title>
<polygon fill="none" stroke="none" points="-4,4 -4,-563 715,-563 715,4 -4,4"/>
<!-- _diagram_info -->
<g id="node1" class="node"><title>_diagram_info</title>
<text text-anchor="start" x="8" y="-485.1" font-family="Times,serif" font-size="13.00">Models diagram</text>
<text text-anchor="start" x="8" y="-471.1" font-family="Times,serif" font-size="13.00">Date: Dec 20 2019 &#45; 10:31</text>
<text text-anchor="start" x="8" y="-457.1" font-family="Times,serif" font-size="13.00">Migration version: 20191206113137</text>
<text text-anchor="start" x="8" y="-443.1" font-family="Times,serif" font-size="13.00">Generated by RailRoady 1.5.3</text>
<text text-anchor="start" x="8" y="-429.1" font-family="Times,serif" font-size="13.00">http://railroady.prestonlee.com</text>
</g>
<!-- ApplicationRecord -->
<g id="node2" class="node"><title>ApplicationRecord</title>
<ellipse fill="none" stroke="black" cx="309" cy="-460.5" rx="77.1866" ry="18"/>
<text text-anchor="middle" x="309" y="-456.8" font-family="Times,serif" font-size="14.00">ApplicationRecord</text>
</g>
<!-- Like -->
<g id="node3" class="node"><title>Like</title>
<path fill="none" stroke="black" d="M278,-0.5C278,-0.5 388,-0.5 388,-0.5 394,-0.5 400,-6.5 400,-12.5 400,-12.5 400,-94.5 400,-94.5 400,-100.5 394,-106.5 388,-106.5 388,-106.5 278,-106.5 278,-106.5 272,-106.5 266,-100.5 266,-94.5 266,-94.5 266,-12.5 266,-12.5 266,-6.5 272,-0.5 278,-0.5"/>
<text text-anchor="middle" x="333" y="-91.3" font-family="Times,serif" font-size="14.00">Like</text>
<polyline fill="none" stroke="black" points="266,-83.5 400,-83.5 "/>
<text text-anchor="start" x="274" y="-68.3" font-family="Times,serif" font-size="14.00">id :INTEGER</text>
<text text-anchor="start" x="274" y="-53.3" font-family="Times,serif" font-size="14.00">micropost_id :integer</text>
<text text-anchor="start" x="274" y="-38.3" font-family="Times,serif" font-size="14.00">user_id :integer</text>
<text text-anchor="start" x="274" y="-23.3" font-family="Times,serif" font-size="14.00">created_at :datetime</text>
<text text-anchor="start" x="274" y="-8.3" font-family="Times,serif" font-size="14.00">updated_at :datetime</text>
</g>
<!-- Relationship -->
<g id="node4" class="node"><title>Relationship</title>
<path fill="none" stroke="black" d="M319.5,-174.5C319.5,-174.5 426.5,-174.5 426.5,-174.5 432.5,-174.5 438.5,-180.5 438.5,-186.5 438.5,-186.5 438.5,-268.5 438.5,-268.5 438.5,-274.5 432.5,-280.5 426.5,-280.5 426.5,-280.5 319.5,-280.5 319.5,-280.5 313.5,-280.5 307.5,-274.5 307.5,-268.5 307.5,-268.5 307.5,-186.5 307.5,-186.5 307.5,-180.5 313.5,-174.5 319.5,-174.5"/>
<text text-anchor="middle" x="373" y="-265.3" font-family="Times,serif" font-size="14.00">Relationship</text>
<polyline fill="none" stroke="black" points="307.5,-257.5 438.5,-257.5 "/>
<text text-anchor="start" x="315.5" y="-242.3" font-family="Times,serif" font-size="14.00">id :INTEGER</text>
<text text-anchor="start" x="315.5" y="-227.3" font-family="Times,serif" font-size="14.00">follower_id :integer</text>
<text text-anchor="start" x="315.5" y="-212.3" font-family="Times,serif" font-size="14.00">followed_id :integer</text>
<text text-anchor="start" x="315.5" y="-197.3" font-family="Times,serif" font-size="14.00">created_at :datetime</text>
<text text-anchor="start" x="315.5" y="-182.3" font-family="Times,serif" font-size="14.00">updated_at :datetime</text>
</g>
<!-- User -->
<g id="node5" class="node"><title>User</title>
<path fill="none" stroke="black" d="M416,-362.5C416,-362.5 552,-362.5 552,-362.5 558,-362.5 564,-368.5 564,-374.5 564,-374.5 564,-546.5 564,-546.5 564,-552.5 558,-558.5 552,-558.5 552,-558.5 416,-558.5 416,-558.5 410,-558.5 404,-552.5 404,-546.5 404,-546.5 404,-374.5 404,-374.5 404,-368.5 410,-362.5 416,-362.5"/>
<text text-anchor="middle" x="484" y="-543.3" font-family="Times,serif" font-size="14.00">User</text>
<polyline fill="none" stroke="black" points="404,-535.5 564,-535.5 "/>
<text text-anchor="start" x="412" y="-520.3" font-family="Times,serif" font-size="14.00">id :INTEGER</text>
<text text-anchor="start" x="412" y="-505.3" font-family="Times,serif" font-size="14.00">name :varchar</text>
<text text-anchor="start" x="412" y="-490.3" font-family="Times,serif" font-size="14.00">email :varchar</text>
<text text-anchor="start" x="412" y="-475.3" font-family="Times,serif" font-size="14.00">created_at :datetime</text>
<text text-anchor="start" x="412" y="-460.3" font-family="Times,serif" font-size="14.00">updated_at :datetime</text>
<text text-anchor="start" x="412" y="-445.3" font-family="Times,serif" font-size="14.00">password_digest :varchar</text>
<text text-anchor="start" x="412" y="-430.3" font-family="Times,serif" font-size="14.00">remember_digest :varchar</text>
<text text-anchor="start" x="412" y="-415.3" font-family="Times,serif" font-size="14.00">admin :boolean</text>
<text text-anchor="start" x="412" y="-400.3" font-family="Times,serif" font-size="14.00">activation_digest :varchar</text>
<text text-anchor="start" x="412" y="-385.3" font-family="Times,serif" font-size="14.00">activated :boolean</text>
<text text-anchor="start" x="412" y="-370.3" font-family="Times,serif" font-size="14.00">activated_at :datetime</text>
</g>
<!-- User&#45;&gt;Like -->
<g id="edge6" class="edge"><title>User&#45;&gt;Like</title>
<path fill="none" stroke="#dcb428" d="M396.982,-363.085C396.324,-362.716 395.663,-362.355 395,-362 348.22,-336.979 311.569,-384.242 277,-344 222.362,-280.395 260.567,-179.667 295.176,-115.359"/>
<ellipse fill="none" stroke="#dcb428" cx="400.514" cy="-365.212" rx="4.00002" ry="4.00002"/>
<polygon fill="#dcb428" stroke="#dcb428" points="295.209,-115.299 303.969,-108.702 297.617,-110.917 300.025,-106.535 300.025,-106.535 300.025,-106.535 297.617,-110.917 296.081,-104.367 295.209,-115.299 295.209,-115.299"/>
</g>
<!-- User&#45;&gt;Relationship -->
<g id="edge2" class="edge"><title>User&#45;&gt;Relationship</title>
<path fill="none" stroke="#9269e6" d="M396.975,-363.098C396.319,-362.725 395.661,-362.359 395,-362 352.249,-338.754 318.454,-381.13 287,-344 270.233,-324.208 281.185,-301.486 300.141,-281.46"/>
<ellipse fill="none" stroke="#9269e6" cx="400.497" cy="-365.247" rx="4.00002" ry="4.00002"/>
<polygon fill="#9269e6" stroke="#9269e6" points="300.348,-281.255 310.618,-277.411 303.899,-277.735 307.45,-274.215 307.45,-274.215 307.45,-274.215 303.899,-277.735 304.282,-271.019 300.348,-281.255 300.348,-281.255"/>
<text text-anchor="middle" x="341.5" y="-332.8" font-family="Times,serif" font-size="14.00">active_relationships</text>
</g>
<!-- User&#45;&gt;Relationship -->
<g id="edge3" class="edge"><title>User&#45;&gt;Relationship</title>
<path fill="none" stroke="#bd0450" d="M420.449,-355.073C418.564,-351.362 416.741,-347.664 415,-344 406.886,-326.927 399.358,-307.838 392.982,-290.173"/>
<ellipse fill="none" stroke="#bd0450" cx="422.307" cy="-358.668" rx="4.00002" ry="4.00002"/>
<polygon fill="#bd0450" stroke="#bd0450" points="392.904,-289.953 393.804,-279.024 391.233,-285.24 389.562,-280.528 389.562,-280.528 389.562,-280.528 391.233,-285.24 385.321,-282.032 392.904,-289.953 392.904,-289.953"/>
<text text-anchor="middle" x="473" y="-332.8" font-family="Times,serif" font-size="14.00">passive_relationships</text>
</g>
<!-- User&#45;&gt;User -->
<g id="edge4" class="edge"><title>User&#45;&gt;User</title>
<path fill="none" stroke="#46ad47" d="M574.25,-468.22C579.113,-466.331 582,-463.758 582,-460.5 582,-457.242 579.113,-454.669 574.25,-452.78"/>
<polygon fill="#46ad47" stroke="#46ad47" points="574.047,-468.272 563.244,-466.392 569.203,-469.511 564.36,-470.751 564.36,-470.751 564.36,-470.751 569.203,-469.511 565.475,-475.111 574.047,-468.272 574.047,-468.272"/>
<polygon fill="#46ad47" stroke="#46ad47" points="574.047,-452.728 565.475,-445.889 569.203,-451.489 564.36,-450.249 564.36,-450.249 564.36,-450.249 569.203,-451.489 563.244,-454.608 574.047,-452.728 574.047,-452.728"/>
<text text-anchor="middle" x="608.5" y="-456.8" font-family="Times,serif" font-size="14.00">following</text>
</g>
<!-- User&#45;&gt;User -->
<g id="edge5" class="edge"><title>User&#45;&gt;User</title>
<path fill="none" stroke="#b84fe5" d="M574.518,-483.749C607.211,-483.668 635,-475.919 635,-460.5 635,-445.081 607.211,-437.332 574.518,-437.251"/>
<polygon fill="#b84fe5" stroke="#b84fe5" points="574.238,-483.743 564.337,-479.029 569.239,-483.636 564.24,-483.528 564.24,-483.528 564.24,-483.528 569.239,-483.636 564.143,-488.027 574.238,-483.743 574.238,-483.743"/>
<polygon fill="#b84fe5" stroke="#b84fe5" points="574.238,-437.257 564.143,-432.973 569.239,-437.364 564.24,-437.472 564.24,-437.472 564.24,-437.472 569.239,-437.364 564.337,-441.971 574.238,-437.257 574.238,-437.257"/>
<text text-anchor="middle" x="661" y="-456.8" font-family="Times,serif" font-size="14.00">followers</text>
</g>
<!-- Micropost -->
<g id="node6" class="node"><title>Micropost</title>
<path fill="none" stroke="black" d="M511.5,-144.5C511.5,-144.5 618.5,-144.5 618.5,-144.5 624.5,-144.5 630.5,-150.5 630.5,-156.5 630.5,-156.5 630.5,-298.5 630.5,-298.5 630.5,-304.5 624.5,-310.5 618.5,-310.5 618.5,-310.5 511.5,-310.5 511.5,-310.5 505.5,-310.5 499.5,-304.5 499.5,-298.5 499.5,-298.5 499.5,-156.5 499.5,-156.5 499.5,-150.5 505.5,-144.5 511.5,-144.5"/>
<text text-anchor="middle" x="565" y="-295.3" font-family="Times,serif" font-size="14.00">Micropost</text>
<polyline fill="none" stroke="black" points="499.5,-287.5 630.5,-287.5 "/>
<text text-anchor="start" x="507.5" y="-272.3" font-family="Times,serif" font-size="14.00">id :INTEGER</text>
<text text-anchor="start" x="507.5" y="-257.3" font-family="Times,serif" font-size="14.00">content :text</text>
<text text-anchor="start" x="507.5" y="-242.3" font-family="Times,serif" font-size="14.00">album :varchar</text>
<text text-anchor="start" x="507.5" y="-227.3" font-family="Times,serif" font-size="14.00">user_id :integer</text>
<text text-anchor="start" x="507.5" y="-212.3" font-family="Times,serif" font-size="14.00">created_at :datetime</text>
<text text-anchor="start" x="507.5" y="-197.3" font-family="Times,serif" font-size="14.00">updated_at :datetime</text>
<text text-anchor="start" x="507.5" y="-182.3" font-family="Times,serif" font-size="14.00">picture :varchar</text>
<text text-anchor="start" x="507.5" y="-167.3" font-family="Times,serif" font-size="14.00">song :varchar</text>
<text text-anchor="start" x="507.5" y="-152.3" font-family="Times,serif" font-size="14.00">likes_count :integer</text>
</g>
<!-- User&#45;&gt;Micropost -->
<g id="edge1" class="edge"><title>User&#45;&gt;Micropost</title>
<path fill="none" stroke="#0263ec" d="M531.207,-354.514C532.523,-350.982 533.792,-347.471 535,-344 537.639,-336.419 540.166,-328.487 542.555,-320.484"/>
<ellipse fill="none" stroke="#0263ec" cx="529.678" cy="-358.533" rx="4.00001" ry="4.00001"/>
<polygon fill="#0263ec" stroke="#0263ec" points="542.606,-320.307 549.72,-311.962 544.003,-315.506 545.399,-310.705 545.399,-310.705 545.399,-310.705 544.003,-315.506 541.078,-309.449 542.606,-320.307 542.606,-320.307"/>
</g>
<!-- User&#45;&gt;Micropost -->
<g id="edge7" class="edge"><title>User&#45;&gt;Micropost</title>
<path fill="none" stroke="#cd41aa" d="M547.77,-352.959C548.921,-349.971 550.002,-346.981 551,-344 553.531,-336.443 555.614,-328.471 557.327,-320.393"/>
<polygon fill="#cd41aa" stroke="#cd41aa" points="547.657,-353.236 539.702,-360.784 545.761,-357.862 543.866,-362.489 543.866,-362.489 543.866,-362.489 545.761,-357.862 548.03,-364.195 547.657,-353.236 547.657,-353.236"/>
<polygon fill="#cd41aa" stroke="#cd41aa" points="557.341,-320.324 563.658,-311.361 558.29,-315.415 559.239,-310.506 559.239,-310.506 559.239,-310.506 558.29,-315.415 554.821,-309.652 557.341,-320.324 557.341,-320.324"/>
<text text-anchor="middle" x="601" y="-332.8" font-family="Times,serif" font-size="14.00">liked_microposts</text>
</g>
<!-- Micropost&#45;&gt;Like -->
<g id="edge8" class="edge"><title>Micropost&#45;&gt;Like</title>
<path fill="none" stroke="#bf7f8b" d="M492.806,-172.977C465.953,-153.068 435.428,-130.438 408.303,-110.328"/>
<ellipse fill="none" stroke="#bf7f8b" cx="496.235" cy="-175.519" rx="4.00002" ry="4.00002"/>
<polygon fill="#bf7f8b" stroke="#bf7f8b" points="408.035,-110.129 402.682,-100.559 404.018,-107.152 400.002,-104.174 400.002,-104.174 400.002,-104.174 404.018,-107.152 397.322,-107.789 408.035,-110.129 408.035,-110.129"/>
</g>
<!-- Micropost&#45;&gt;User -->
<g id="edge10" class="edge"><title>Micropost&#45;&gt;User</title>
<path fill="none" stroke="#5fd6a3" d="M637.936,-282.824C653.912,-301.377 663.147,-322.81 652,-344 634.829,-376.642 603.802,-401.847 573.044,-420.261"/>
<polygon fill="#5fd6a3" stroke="#5fd6a3" points="637.525,-282.382 634.011,-271.994 634.12,-278.72 630.716,-275.059 630.716,-275.059 630.716,-275.059 634.12,-278.72 627.42,-278.123 637.525,-282.382 637.525,-282.382"/>
<polygon fill="#5fd6a3" stroke="#5fd6a3" points="573.04,-420.263 562.132,-421.381 568.714,-422.769 564.387,-425.275 564.387,-425.275 564.387,-425.275 568.714,-422.769 566.643,-429.169 573.04,-420.263 573.04,-420.263"/>
<text text-anchor="middle" x="683.5" y="-332.8" font-family="Times,serif" font-size="14.00">iine_users</text>
</g>
<!-- Micropost&#45;&gt;Micropost -->
<g id="edge9" class="edge"><title>Micropost&#45;&gt;Micropost</title>
<path fill="none" stroke="#c0b952" d="M640.307,-241.287C645.404,-238.11 648.5,-233.514 648.5,-227.5 648.5,-221.486 645.404,-216.89 640.307,-213.713"/>
<polygon fill="#c0b952" stroke="#c0b952" points="640.084,-241.377 629.126,-240.938 635.445,-243.244 630.807,-245.112 630.807,-245.112 630.807,-245.112 635.445,-243.244 632.488,-249.286 640.084,-241.377 640.084,-241.377"/>
<polygon fill="#c0b952" stroke="#c0b952" points="640.084,-213.623 632.488,-205.714 635.445,-211.756 630.807,-209.888 630.807,-209.888 630.807,-209.888 635.445,-211.756 629.126,-214.062 640.084,-213.623 640.084,-213.623"/>
<text text-anchor="middle" x="679.5" y="-223.8" font-family="Times,serif" font-size="14.00">liked_users</text>
</g>
</g>
</svg>
